<svg width="12" height="13" viewBox="0 0 12 13" fill="none" xmlns="http://www.w3.org/2000/svg">
<g clip-path="url(#clip0_13545_19929)">
<path d="M10.8674 7.84285C10.817 7.08725 10.219 5.99525 9.37936 5.12565C8.43896 4.14965 8.26736 2.98085 8.26576 2.96925L8.23416 2.74125L8.02056 2.82645C7.38296 3.08085 7.17256 3.56805 7.02056 3.92405C6.91896 4.15885 6.86496 4.26085 6.79016 4.26085C6.77979 4.26185 6.76934 4.26185 6.75896 4.26085C6.70394 4.24262 6.6533 4.21315 6.61027 4.17431C6.56723 4.13548 6.53273 4.08812 6.50896 4.03525C6.18416 3.39805 6.62896 1.79525 6.82656 1.23525L6.98656 0.78125L6.56776 1.01845C5.86383 1.4347 5.19232 1.9035 4.55896 2.42085C3.96605 2.89669 3.4135 3.42074 2.90697 3.98765C2.32097 4.65165 1.87377 5.32205 1.57937 5.98085C0.838165 7.63405 1.09937 9.12085 1.58937 9.96045C2.08817 10.8137 2.90217 11.4697 3.88137 11.8076C4.82056 12.132 5.73256 12.2128 6.33177 12.224H6.42336C6.86889 12.2245 7.31236 12.1638 7.74136 12.0436C8.50136 11.8296 9.13416 11.5064 9.62616 11.0836C10.0306 10.7381 10.351 10.305 10.5634 9.81725C10.941 8.94645 10.8854 8.11605 10.8674 7.84285ZM1.74497 9.86845C1.79177 9.94845 1.84257 10.0265 1.89497 10.1028C1.84257 10.0265 1.79177 9.94885 1.74497 9.86845ZM6.42496 12.0436H6.33696C6.38136 12.0436 6.42536 12.0436 6.46976 12.0436H6.42496ZM8.08896 2.99365C8.08896 2.99365 8.09176 3.01605 8.09936 3.05605C8.09016 3.01605 8.08737 2.99365 8.08737 2.99365H8.08896Z" fill="#FFFFFF"/>
<path d="M8.39546 8.65106C8.24986 8.39706 7.93386 8.19626 7.31546 8.16186L7.14186 7.56386C7.14186 7.56386 7.72786 7.85586 8.01106 8.19346C8.01106 8.19346 8.42986 7.26466 6.84746 6.52746L6.75346 6.48266C5.62466 5.94226 4.90506 5.32666 4.50266 4.72266C4.50266 4.72266 4.50906 6.10666 5.47706 6.67106C5.35746 6.72617 5.24547 6.79648 5.14386 6.88026C4.9213 7.05742 4.71901 7.25864 4.54066 7.48026C4.3946 7.66002 4.25865 7.84778 4.13346 8.04266L4.09346 8.10826L4.04666 8.18386L4.00346 8.25466C3.94506 8.35252 3.886 8.45666 3.82626 8.56706L3.80306 8.61026L3.76946 8.67386C3.75786 8.69506 3.74706 8.71666 3.73586 8.73826C3.71346 8.78186 3.69106 8.82666 3.66786 8.87266C3.65666 8.89506 3.64546 8.91826 3.63426 8.94146C3.60066 9.01146 3.56626 9.08346 3.53266 9.15746L3.49866 9.23226C3.34266 9.57906 3.18866 9.96866 3.03906 10.4091C3.59978 10.8229 4.23794 11.1199 4.91565 11.2824C5.59337 11.445 6.29682 11.4696 6.98426 11.3551C6.98426 11.3551 5.74426 10.2395 5.98066 9.31506C6.01639 9.18104 6.07986 9.05603 6.16697 8.9481C6.25408 8.84018 6.36289 8.75176 6.48634 8.68856C6.6098 8.62536 6.74515 8.58879 6.88364 8.58123C7.02213 8.57367 7.16066 8.59528 7.29026 8.64466C7.53026 8.73786 7.73746 8.91066 7.90546 9.10546C8.16506 9.40666 8.31306 9.74786 8.28906 9.89466C8.28946 9.89266 8.69026 9.16426 8.39546 8.65106Z" fill="#FFFFFF"/>
<path d="M10.0409 8.02703C10.0409 9.54703 8.88654 10.835 7.28494 11.2922C7.18414 11.316 7.08494 11.3366 6.98734 11.3542C6.98734 11.3542 5.74734 10.2386 5.98374 9.31423C6.01946 9.18022 6.08293 9.0552 6.17004 8.94728C6.25715 8.83936 6.36596 8.75093 6.48942 8.68773C6.61287 8.62453 6.74823 8.58797 6.88672 8.58041C7.0252 8.57284 7.16373 8.59445 7.29334 8.64383C7.53334 8.73703 7.74054 8.90983 7.90854 9.10463C8.16814 9.40583 8.31614 9.74703 8.29214 9.89383C8.29214 9.89383 8.69214 9.16543 8.39814 8.65383C8.25254 8.39983 7.93654 8.19903 7.31814 8.16463L7.14454 7.56663C7.14454 7.56663 7.73054 7.85863 8.01374 8.19623C8.01374 8.19623 8.43254 7.26743 6.85014 6.53023L6.75614 6.48543C5.62734 5.94503 4.90774 5.32943 4.50534 4.72543C4.50534 4.72543 4.51174 6.10943 5.47974 6.67383C5.36013 6.72894 5.24814 6.79926 5.14654 6.88303C4.92398 7.0602 4.72168 7.26142 4.54334 7.48303C4.39727 7.66279 4.26133 7.85055 4.13614 8.04543L4.09614 8.11103L4.04934 8.18663L4.00614 8.25743C3.94774 8.3553 3.88867 8.45943 3.82894 8.56983L3.80574 8.61303L3.77214 8.67663C3.76054 8.69783 3.74974 8.71943 3.73854 8.74103C3.71574 8.78503 3.69334 8.82943 3.67054 8.87543C3.65934 8.89783 3.64814 8.92103 3.63694 8.94423C3.60334 9.01423 3.56894 9.08623 3.53534 9.16023L3.50134 9.23503C3.34454 9.57863 3.19054 9.96863 3.04094 10.409H3.03854C2.24614 9.70223 1.96094 8.90183 1.96094 8.02703C1.96098 7.76115 1.9969 7.4965 2.06774 7.24023C2.02374 8.92343 3.40494 8.84343 3.00534 7.75303C2.95626 7.65213 2.91233 7.54879 2.87374 7.44343L2.86894 7.43103C2.80927 7.2683 2.76547 7.10019 2.73814 6.92903C2.61814 6.17303 2.84814 5.29343 3.87094 4.28143L6.12254 2.20983L6.12534 2.20703C5.21014 3.97503 6.20534 5.17623 6.82974 5.21103H6.84494C6.88014 5.21236 6.91536 5.20913 6.94974 5.20143C6.9557 5.20039 6.96158 5.19892 6.96734 5.19703C6.98732 5.19208 7.00676 5.18511 7.02534 5.17623C7.03224 5.17338 7.03892 5.17004 7.04534 5.16623C7.05311 5.16223 7.0606 5.15769 7.06774 5.15263L7.07894 5.14503C7.08476 5.14138 7.09024 5.13724 7.09534 5.13263L7.10694 5.12303C7.1119 5.11895 7.11658 5.11454 7.12094 5.10983C7.12534 5.10583 7.12934 5.10103 7.13374 5.09663C7.14161 5.0883 7.14896 5.07948 7.15574 5.07023L7.15934 5.06543L7.16854 5.05263L7.18094 5.03303L7.18894 5.01823C7.19742 5.00353 7.20464 4.98814 7.21054 4.97223C7.21486 4.9626 7.2186 4.95271 7.22174 4.94263C7.22494 4.93423 7.22774 4.92543 7.23014 4.91703C7.23254 4.90863 7.23534 4.89863 7.23734 4.88863C7.24174 4.87103 7.24534 4.85303 7.24814 4.83423C7.25094 4.81543 7.25174 4.80823 7.25334 4.79423C7.27654 4.57583 7.36694 4.25063 7.53734 4.00983C7.54494 3.99983 7.55214 3.98943 7.56014 3.97943C7.56814 3.96943 7.57254 3.96303 7.57894 3.95543C7.58534 3.94783 7.59254 3.93863 7.60014 3.93063C7.64238 3.88059 7.69092 3.83623 7.74454 3.79863C7.59134 5.27263 10.1681 5.98183 9.22454 8.40263C9.59494 8.13543 9.84934 7.76263 9.93494 7.24623C10.005 7.50058 10.0407 7.76319 10.0409 8.02703Z" fill="#FFFFFF"/>
<path d="M9.93534 7.24623C9.84974 7.76623 9.59534 8.13543 9.22494 8.40263C10.1701 5.98183 7.59334 5.27263 7.74494 3.79863C7.69132 3.83623 7.64278 3.88059 7.60054 3.93063C7.59294 3.93863 7.58614 3.94703 7.57934 3.95543C7.57254 3.96383 7.56654 3.97143 7.56054 3.97943C7.55454 3.98743 7.54534 3.99983 7.53774 4.00983C7.36734 4.24983 7.27694 4.57583 7.25374 4.79423C7.25374 4.80783 7.25054 4.82103 7.24854 4.83423C7.24654 4.84743 7.24214 4.87103 7.23774 4.88863C7.23534 4.89863 7.23294 4.90783 7.23054 4.91703C7.22814 4.92623 7.22534 4.93423 7.22214 4.94263C7.219 4.95271 7.21526 4.9626 7.21094 4.97223C7.20504 4.98814 7.19782 5.00353 7.18934 5.01823L7.18134 5.03303L7.16894 5.05263L7.15974 5.06543L7.15614 5.07023C7.14936 5.07948 7.14201 5.0883 7.13414 5.09663C7.12974 5.10103 7.12574 5.10583 7.12134 5.10983C7.11698 5.11454 7.1123 5.11895 7.10734 5.12303L7.09574 5.13263C7.09064 5.13724 7.08516 5.14138 7.07934 5.14503L7.06814 5.15263C7.061 5.15769 7.05351 5.16223 7.04574 5.16623C7.03894 5.16983 7.03254 5.17343 7.02574 5.17623C7.00716 5.18511 6.98772 5.19208 6.96774 5.19703C6.96198 5.19892 6.9561 5.20039 6.95014 5.20143C6.91576 5.20913 6.88054 5.21236 6.84534 5.21103H6.83014C6.20454 5.17623 5.21054 3.97503 6.12574 2.20703L6.12294 2.20983L3.87174 4.28143C2.84894 5.29343 2.62094 6.17303 2.73894 6.92903C2.76627 7.10019 2.81007 7.2683 2.86974 7.43103L2.87454 7.44343C2.91313 7.54879 2.95706 7.65213 3.00614 7.75303C3.40614 8.84343 2.02454 8.92343 2.06854 7.24023C1.99743 7.49646 1.96124 7.76112 1.96094 8.02703C1.96094 8.90183 2.24534 9.70223 3.03774 10.4062L3.04134 10.4094C3.18974 9.96943 3.34374 9.57863 3.49814 9.23383C3.50934 9.20863 3.52054 9.18463 3.53174 9.16023C3.56534 9.08583 3.59934 9.01423 3.63334 8.94423C3.64454 8.92103 3.65574 8.89783 3.66694 8.87543C3.68974 8.82943 3.71214 8.78503 3.73494 8.74103C3.74574 8.71943 3.75694 8.69783 3.76854 8.67663L3.80214 8.61303C3.80974 8.59823 3.81774 8.58383 3.82534 8.56983C3.8848 8.45996 3.94387 8.35583 4.00254 8.25743L4.04574 8.18663L4.09254 8.11103L4.13254 8.04543C4.25773 7.85055 4.39367 7.66279 4.53974 7.48303C4.71808 7.26142 4.92038 7.0602 5.14294 6.88303C5.24454 6.79926 5.35653 6.72894 5.47614 6.67383C4.50814 6.10943 4.50174 4.72543 4.50174 4.72543C4.90414 5.32863 5.62174 5.94423 6.75254 6.48543L6.84654 6.53023C8.42894 7.26743 8.01014 8.19623 8.01014 8.19623C7.72694 7.85863 7.14094 7.56663 7.14094 7.56663L7.31454 8.16463C7.93294 8.19903 8.24894 8.39983 8.39454 8.65383C8.68934 9.16703 8.28854 9.89383 8.28854 9.89383C8.31254 9.74703 8.16454 9.40583 7.90494 9.10463C7.73694 8.90983 7.52854 8.73703 7.28974 8.64383C7.16013 8.59445 7.0216 8.57284 6.88312 8.58041C6.74463 8.58797 6.60928 8.62453 6.48582 8.68773C6.36236 8.75093 6.25355 8.83936 6.16644 8.94728C6.07933 9.0552 6.01586 9.18022 5.98014 9.31423C5.74534 10.2402 6.98374 11.3542 6.98374 11.3542C7.08134 11.3366 7.18054 11.316 7.28134 11.2922C8.88134 10.835 10.0373 9.54623 10.0373 8.02703C10.0384 7.76337 10.0041 7.50077 9.93534 7.24623ZM6.11734 2.21863L6.11294 2.22303C6.11399 2.2212 6.11551 2.21969 6.11734 2.21863ZM6.10094 2.23583L6.10494 2.23183C6.10311 2.23346 6.10137 2.2352 6.09974 2.23703L6.10094 2.23583ZM6.06894 2.27063C6.07126 2.26777 6.0738 2.2651 6.07654 2.26263L6.06974 2.26983C6.06974 2.26983 6.06894 2.26943 6.06894 2.26903V2.27063ZM5.99614 2.35063L6.00214 2.34423L6.00974 2.33543C6.01144 2.33393 6.01304 2.33233 6.01454 2.33063L6.02294 2.32103L6.02654 2.31743C6.02511 2.31895 6.02377 2.32055 6.02254 2.32223L6.01454 2.33063C6.01297 2.33214 6.0115 2.33374 6.01014 2.33543L6.00214 2.34423L5.99734 2.34983C5.99527 2.35163 5.99339 2.35364 5.99174 2.35583L5.99614 2.35063ZM5.91614 2.43743V2.43983C5.91214 2.44423 5.90774 2.44823 5.90414 2.45303C5.90814 2.44543 5.91294 2.44063 5.91734 2.43543L5.91614 2.43743Z" fill="#2B508E"/>
</g>
<defs>
<clipPath id="clip0_13545_19929">
<rect width="12" height="12" fill="white" transform="translate(0 0.5)"/>
</clipPath>
</defs>
</svg>
